<svg width="608" height="396" viewBox="0 0 608 396" fill="none" xmlns="http://www.w3.org/2000/svg">
<g clip-path="url(#clip0_11257_9805)">
<rect x="145" y="50" width="7.256" height="3.96" transform="rotate(-161 145 50)" fill="#FE006B" fill-opacity="0.9"/>
<rect x="476" y="93" width="11.256" height="5.96" transform="rotate(-26 476 93)" fill="#23A2CD" fill-opacity="0.9"/>
<rect x="526" y="185" width="4.256" height="5.96" transform="rotate(-42 526 185)" fill="#23A2CD" fill-opacity="0.75"/>
<rect x="250" y="238" width="6.256" height="6.96" transform="rotate(-145 250 238)" fill="#FE006B" fill-opacity="0.9"/>
<rect x="20" y="193" width="9.256" height="6.96" transform="rotate(50 20 193)" fill="#23A2CD" fill-opacity="0.65"/>
<rect x="579" y="156" width="22.256" height="3.96" transform="rotate(33 579 156)" fill="#FFCD32"/>
<rect x="272" y="89" width="10.256" height="6.96" transform="rotate(-15 272 89)" fill="#FFCD32" fill-opacity="0.85"/>
<rect x="345" y="79" width="16.256" height="5.96" transform="rotate(-165 345 79)" fill="#23A2CD" fill-opacity="0.6"/>
<rect x="202" y="395" width="5.256" height="3.96" transform="rotate(-118 202 395)" fill="#23A2CD" fill-opacity="0.6"/>
<rect x="499" y="285" width="22.256" height="6.96" transform="rotate(136 499 285)" fill="#23A2CD"/>
<rect x="325" y="82" width="10.256" height="4.96" transform="rotate(57 325 82)" fill="#FE006B" fill-opacity="0.6"/>
<rect x="65" y="96" width="13.256" height="3.96" transform="rotate(-54 65 96)" fill="#FE006B" fill-opacity="0.45"/>
<rect x="209" y="282" width="22.256" height="4.96" transform="rotate(-124 209 282)" fill="#FE006B" fill-opacity="0.9"/>
<rect x="419" y="359" width="18.256" height="3.96" transform="rotate(-28 419 359)" fill="#FFCD32"/>
<rect x="558" y="202" width="8.256" height="6.96" transform="rotate(-118 558 202)" fill="#FE006B" fill-opacity="0.9"/>
<rect x="126" y="248" width="10.256" height="4.96" transform="rotate(-178 126 248)" fill="#FE006B" fill-opacity="0.85"/>
<rect x="129" y="377" width="24.256" height="4.96" transform="rotate(-118 129 377)" fill="#FFCD32"/>
<rect x="164" y="20" width="7.256" height="7.96" transform="rotate(72 164 20)" fill="#FE006B"/>
<rect x="184" y="66" width="12.256" height="7.96" transform="rotate(-173 184 66)" fill="#FFCD32" fill-opacity="0.85"/>
<rect x="190" y="125" width="12.256" height="6.96" transform="rotate(48 190 125)" fill="#FFCD32"/>
<rect x="233" y="18" width="4.256" height="5.96" transform="rotate(-13 233 18)" fill="#23A2CD" fill-opacity="0.35"/>
<circle cx="497.52" cy="321.52" r="1.52" fill="#FFCD32" fill-opacity="0.65"/>
<circle cx="142.52" cy="6.52" r="3.52" fill="#FFCD32" fill-opacity="0.6"/>
<circle cx="482.02" cy="109.02" r="4.02" fill="#FFCD32" fill-opacity="0.65"/>
<circle cx="161.02" cy="181.02" r="3.02" fill="#FE006B" fill-opacity="0.75"/>
<circle cx="184.52" cy="353.52" r="3.52" fill="#FE006B" fill-opacity="0.85"/>
<circle cx="485.52" cy="270.52" r="1.52" fill="#FFCD32"/>
<circle cx="283.52" cy="252.52" r="1.52" fill="#FFCD32" fill-opacity="0.75"/>
<circle cx="606.52" cy="308.52" r="1.52" fill="#FE006B" fill-opacity="0.85"/>
<circle cx="488.52" cy="241.52" r="4.52" fill="#FE006B"/>
<circle cx="339.02" cy="24.02" r="2.02" fill="#FE006B" fill-opacity="0.65"/>
<circle cx="106.02" cy="314.02" r="3.02" fill="#FFCD32" fill-opacity="0.65"/>
<circle cx="573.02" cy="314.02" r="2.02" fill="#FE006B"/>
<circle cx="499.52" cy="189.52" r="2.52" fill="#23A2CD" fill-opacity="0.35"/>
<circle cx="445.52" cy="313.52" r="1.52" fill="#FE006B" fill-opacity="0.35"/>
<circle cx="96.02" cy="278.02" r="2.02" fill="#23A2CD" fill-opacity="0.75"/>
<circle cx="368.02" cy="30.02" r="3.02" fill="#FFCD32" fill-opacity="0.6"/>
<circle cx="559.02" cy="242.02" r="3.02" fill="#FE006B" fill-opacity="0.65"/>
<circle cx="535.52" cy="395.52" r="1.52" fill="#FFCD32" fill-opacity="0.45"/>
<circle cx="354.02" cy="127.02" r="4.02" fill="#FFCD32" fill-opacity="0.85"/>
<circle cx="109.52" cy="113.52" r="4.52" fill="#FE006B"/>
<circle cx="7.02" cy="157.02" r="4.02" fill="#FFCD32" fill-opacity="0.85"/>
<circle cx="480.52" cy="283.52" r="2.52" fill="#FFCD32" fill-opacity="0.6"/>
<path d="M196.299 374.991L192.183 379.253L186.858 376.656L187.682 370.788L193.517 369.76L196.299 374.991Z" fill="#23A2CD" fill-opacity="0.35"/>
<path d="M129.124 49.0021L125.998 50.664L122.996 48.7881L123.12 45.2503L126.246 43.5883L129.248 45.4642L129.124 49.0021Z" fill="#FE006B" fill-opacity="0.6"/>
<path d="M505.955 242.061L499.849 240.077L501.833 233.971L507.939 235.955L505.955 242.061Z" fill="#FFCD32" fill-opacity="0.35"/>
<path d="M212.525 16.4849L215.194 11.8628L220.414 12.9725L220.972 18.2803L216.097 20.4511L212.525 16.4849Z" fill="#FFCD32" fill-opacity="0.45"/>
<path d="M148.082 314.522L147.293 310.051L150.771 307.133L155.037 308.686L155.826 313.157L152.348 316.075L148.082 314.522Z" fill="#FE006B" fill-opacity="0.85"/>
<path d="M481.223 334.073L480.039 339.204L476.188 335.613L481.223 334.073Z" fill="#FFCD32"/>
<path d="M100.164 362.667L102.662 354.498L110.83 356.996L108.333 365.164L100.164 362.667Z" fill="#23A2CD" fill-opacity="0.85"/>
<path d="M303.108 330.338L297.792 329.873L296.591 324.673L301.166 321.924L305.194 325.425L303.108 330.338Z" fill="#FFCD32" fill-opacity="0.45"/>
<path d="M71.6776 52.6717L65.6587 51.5017L69.6813 46.8743L71.6776 52.6717Z" fill="#23A2CD" fill-opacity="0.45"/>
<path d="M515.848 369.581L520.115 363.01L526.686 367.277L522.419 373.848L515.848 369.581Z" fill="#FFCD32"/>
<path d="M219.45 254.656L214.759 252.265L219.175 249.397L219.45 254.656Z" fill="#FE006B"/>
<path d="M265.177 330.889L272.251 331.508L273.848 338.426L267.762 342.083L262.403 337.425L265.177 330.889Z" fill="#FE006B" fill-opacity="0.65"/>
<path d="M91.9723 285.648L87.7939 282.83L88.1455 277.802L92.6754 275.593L96.8538 278.411L96.5022 283.439L91.9723 285.648Z" fill="#FE006B" fill-opacity="0.35"/>
<path d="M297.071 373.848L292.228 368.655L295.671 362.444L302.641 363.799L303.506 370.847L297.071 373.848Z" fill="#FE006B"/>
<path d="M267.553 159.734L273.372 157.02L276.085 162.839L270.266 165.553L267.553 159.734Z" fill="#FFCD32" fill-opacity="0.75"/>
<path d="M357.268 97.6674L356.9 92.4147L361.633 94.723L357.268 97.6674Z" fill="#FFCD32"/>
<path d="M89.5425 94.8603L93.3141 93.4125L96.4538 95.955L95.8218 99.9452L92.0501 101.393L88.9105 98.8506L89.5425 94.8603Z" fill="#FFCD32"/>
<path d="M376.034 379.259L375.809 383.552L371.516 383.327L371.741 379.034L376.034 379.259Z" fill="#FFCD32"/>
<path d="M572.84 246.048L575.543 243.046L579.495 243.886L580.743 247.728L578.04 250.731L574.088 249.891L572.84 246.048Z" fill="#FFCD32" fill-opacity="0.6"/>
<path d="M377.437 90.314L383.253 89.1835L386.126 94.3655L382.085 98.6986L376.715 96.1947L377.437 90.314Z" fill="#23A2CD" fill-opacity="0.75"/>
<path d="M169.735 356.95L167.521 360.635L163.836 358.421L166.05 354.735L169.735 356.95Z" fill="#23A2CD" fill-opacity="0.9"/>
<path d="M181.527 158.614L187.05 162.065L185.474 168.384L178.977 168.838L176.538 162.8L181.527 158.614Z" fill="#FFCD32"/>
<path d="M151.318 294.403L152.953 302.095L145.474 299.665L151.318 294.403Z" fill="#FE006B"/>
<path d="M385.039 257.071L385.764 259.787L388.502 259.151L386.512 261.137L388.432 263.191L385.717 262.46L384.898 265.149L384.174 262.433L381.435 263.069L383.426 261.083L381.506 259.029L384.221 259.76L385.039 257.071Z" fill="#FE006B" fill-opacity="0.6"/>
<path d="M319.238 23.627L319.196 27.1601L321.85 29.4924L318.317 29.4496L315.984 32.1039L316.027 28.5708L313.373 26.2385L316.906 26.2812L319.238 23.627Z" fill="#FE006B" fill-opacity="0.75"/>
<path d="M382.945 377.034L387.118 376.527L386.746 372.34L389.271 375.701L392.712 373.285L391.064 377.152L394.876 378.924L390.703 379.431L391.075 383.618L388.55 380.258L385.109 382.673L386.757 378.806L382.945 377.034Z" fill="#23A2CD"/>
<path d="M404.506 161.507L405.505 163.759L407.788 162.833L406.337 164.825L408.28 166.339L405.831 166.078L405.491 168.518L404.492 166.267L402.209 167.192L403.659 165.201L401.716 163.687L404.166 163.947L404.506 161.507Z" fill="#FE006B"/>
<path d="M341.614 326.998L345.209 326.299L345.655 322.664L347.43 325.867L351.025 325.168L348.527 327.846L350.303 331.049L346.984 329.502L344.487 332.18L344.933 328.545L341.614 326.998Z" fill="#FE006B" fill-opacity="0.75"/>
<path d="M264.124 108.998L265.777 107.028L264.414 104.847L266.799 105.81L268.452 103.84L268.273 106.405L270.658 107.369L268.162 107.991L267.983 110.557L266.62 108.376L264.124 108.998Z" fill="#FFCD32"/>
<path d="M467.511 71.0415L463.711 68.8474L460.45 71.7837L461.362 67.4913L457.562 65.2972L461.926 64.8385L462.839 60.546L464.623 64.555L468.988 64.0963L465.727 67.0326L467.511 71.0415Z" fill="#FE006B" fill-opacity="0.35"/>
<path d="M428.484 272.29L429.816 275.155L432.723 273.917L430.907 276.503L433.433 278.401L430.286 278.122L429.905 281.258L428.573 278.393L425.666 279.631L427.482 277.045L424.956 275.147L428.103 275.426L428.484 272.29Z" fill="#FE006B" fill-opacity="0.6"/>
<path d="M520.856 197.435L518.675 198.798L519.297 201.293L517.327 199.64L515.146 201.003L516.11 198.618L514.139 196.965L516.705 197.145L517.668 194.76L518.291 197.255L520.856 197.435Z" fill="#23A2CD" fill-opacity="0.75"/>
<path d="M471.84 280.952L469.182 282.632L468.728 285.743L467.048 283.086L463.937 282.632L466.594 280.951L467.048 277.84L468.729 280.497L471.84 280.952Z" fill="#FFCD32"/>
<path d="M58.46 132L56.9637 127.956L52.92 126.46L56.9637 124.964L58.46 120.92L59.9563 124.964L64 126.46L59.9563 127.956L58.46 132Z" fill="#FFCD32" fill-opacity="0.75"/>
<path d="M113 75.04L110.966 75.6206L111.48 77.6727L109.96 76.2012L108.44 77.6727L108.954 75.6206L106.92 75.04L108.954 74.4594L108.44 72.4073L109.96 73.8788L111.48 72.4073L110.966 74.4594L113 75.04Z" fill="#23A2CD" fill-opacity="0.75"/>
<path d="M321.627 47.7615L325.16 47.8043L327.492 45.1501L327.45 48.6832L330.104 51.0155L326.571 50.9727L324.238 53.627L324.281 50.0939L321.627 47.7615Z" fill="#FFCD32" fill-opacity="0.45"/>
<path d="M460.033 257.264L460.981 260.801L464.638 260.992L461.567 262.987L462.514 266.524L459.669 264.219L456.598 266.214L457.91 262.795L455.064 260.491L458.721 260.682L460.033 257.264Z" fill="#FFCD32" fill-opacity="0.6"/>
<path d="M363.347 377.847L365.092 379.979L367.847 380.042L365.715 381.787L365.652 384.542L363.907 382.41L361.153 382.347L363.284 380.602L363.347 377.847Z" fill="#FFCD32" fill-opacity="0.6"/>
<path d="M435.542 299.14L433.944 301.601L435.791 303.882L432.956 303.123L431.357 305.584L431.204 302.653L428.368 301.894L431.109 300.842L430.955 297.91L432.802 300.192L435.542 299.14Z" fill="#FFCD32" fill-opacity="0.75"/>
<path d="M414.948 362.778L411.646 360.788L409.55 364.024L409.622 360.17L405.772 359.973L409.146 358.108L407.392 354.675L410.694 356.665L412.79 353.429L412.718 357.283L416.568 357.48L413.194 359.345L414.948 362.778Z" fill="#FFCD32" fill-opacity="0.9"/>
<path d="M259.606 387.434L261.151 388.879L262.645 387.381L262.167 389.442L264.211 389.987L262.187 390.603L262.737 392.646L261.192 391.201L259.698 392.699L260.176 390.638L258.132 390.093L260.156 389.477L259.606 387.434Z" fill="#FFCD32" fill-opacity="0.75"/>
</g>
<defs>
<clipPath id="clip0_11257_9805">
<rect width="608" height="396" fill="white"/>
</clipPath>
</defs>
</svg>
