<svg width="24" height="24" viewBox="0 0 24 24" xmlns="http://www.w3.org/2000/svg">
<path d="M10.8602 3.84406V23.3065L14.4946 21.027V1.5L10.8602 3.84406Z" />
<path d="M9.36021 20.7532C6.00349 19.9375 3.63437 17.9131 3.63437 15.5431C3.63437 13.1897 6.00319 11.1653 9.36021 10.3439V7.98889C3.96587 8.89099 0 11.9309 0 15.5431C0 19.1553 3.97668 22.1997 9.36021 23.1103V20.7532Z" />
<path d="M21.6345 10.0162C20.1021 9.062 18.1605 8.35249 15.9946 7.98874V10.3387C17.1588 10.6217 18.2059 11.0483 19.0753 11.5859L16.7527 13.0268H24V8.55364L21.6343 10.016L21.6345 10.0162Z" />
</svg>
