<svg width="16" height="16" viewBox="0 0 16 16" xmlns="http://www.w3.org/2000/svg">
<g clip-path="url(#clip0_4_12388)">
<path d="M4.88892 0C3.78435 0 2.88892 0.883165 2.88892 1.9726H4.22225C4.22225 1.60946 4.52073 1.31507 4.88892 1.31507H11.1111C11.4793 1.31507 11.7778 1.60946 11.7778 1.9726H13.1111C13.1111 0.883165 12.2157 0 11.1111 0H4.88892Z" />
<path d="M1.11108 5.04108C1.11108 3.95165 2.00652 3.06848 3.11108 3.06848H12.8889C13.9934 3.06848 14.8889 3.95165 14.8889 5.04108H13.5555C13.5555 4.67794 13.257 4.38355 12.8889 4.38355H3.11108C2.7429 4.38355 2.44442 4.67794 2.44442 5.04108H1.11108Z" />
<path fill-rule="evenodd" clip-rule="evenodd" d="M1.77778 6.35608C0.795938 6.35608 0 7.14109 0 8.1095V14.2465C0 15.2149 0.795938 15.9999 1.77778 15.9999H14.2222C15.2041 15.9999 16 15.2149 16 14.2465V8.1095C16 7.14109 15.2041 6.35608 14.2222 6.35608H1.77778ZM14.2222 7.67115H1.77778C1.53232 7.67115 1.33333 7.86744 1.33333 8.1095V14.2465C1.33333 14.4886 1.53232 14.6848 1.77778 14.6848H14.2222C14.4676 14.6848 14.6667 14.4886 14.6667 14.2465V8.1095C14.6667 7.86744 14.4676 7.67115 14.2222 7.67115Z" />
</g>
<defs>
<clipPath id="clip0_4_12388">
<rect width="16" height="16" fill="white"/>
</clipPath>
</defs>
</svg>
