<svg width="16" height="16" viewBox="0 0 16 16" xmlns="http://www.w3.org/2000/svg">
<path d="M7.24015 2.56271V15.5377L9.66306 14.018V1L7.24015 2.56271Z" />
<path d="M6.24014 13.8355C4.00233 13.2917 2.42292 11.9421 2.42292 10.3621C2.42292 8.79315 4.00213 7.44354 6.24014 6.89593V5.32592C2.64392 5.92733 0 7.95394 0 10.3621C0 12.7702 2.65112 14.7998 6.24014 15.4069V13.8355Z" />
<path d="M14.423 6.67744C13.4014 6.04133 12.107 5.56833 10.6631 5.32583V6.89244C11.4392 7.08114 12.1373 7.36554 12.7169 7.72394L11.1685 8.68455H16V5.70243L14.4229 6.67734L14.423 6.67744Z" />
</svg>
