<svg width="12" height="12" viewBox="0 0 12 12" xmlns="http://www.w3.org/2000/svg">
<path d="M0 1.6125C0 1.34326 0.223858 1.125 0.5 1.125H11.5C11.7761 1.125 12 1.34326 12 1.6125C12 1.88174 11.7761 2.1 11.5 2.1H0.5C0.223858 2.1 0 1.88174 0 1.6125Z" />
<path d="M0 4.5375C0 4.26826 0.223858 4.05 0.5 4.05H5.5C5.77614 4.05 6 4.26826 6 4.5375C6 4.80674 5.77614 5.025 5.5 5.025H0.5C0.223858 5.025 0 4.80674 0 4.5375Z" />
<path d="M0.5 6.975C0.223858 6.975 0 7.19326 0 7.4625C0 7.73174 0.223858 7.95 0.5 7.95H5.5C5.77614 7.95 6 7.73174 6 7.4625C6 7.19326 5.77614 6.975 5.5 6.975H0.5Z" />
<path d="M0 10.3875C0 10.1183 0.223858 9.9 0.5 9.9H11.5C11.7761 9.9 12 10.1183 12 10.3875C12 10.6567 11.7761 10.875 11.5 10.875H0.5C0.223858 10.875 0 10.6567 0 10.3875Z" />
<path fill-rule="evenodd" clip-rule="evenodd" d="M7.25 5.63438C7.25 4.62473 8.08947 3.80625 9.125 3.80625C10.1605 3.80625 11 4.62473 11 5.63438C11 5.96214 10.9115 6.26975 10.7566 6.53576L11.6036 7.36154C11.7988 7.55192 11.7988 7.86058 11.6036 8.05096C11.4083 8.24135 11.0917 8.24134 10.8964 8.05096L10.0495 7.22519C9.77667 7.37624 9.46117 7.4625 9.125 7.4625C8.08947 7.4625 7.25 6.64402 7.25 5.63438ZM9.125 4.5375C8.50368 4.5375 8 5.02859 8 5.63438C8 6.24016 8.50368 6.73125 9.125 6.73125C9.74632 6.73125 10.25 6.24016 10.25 5.63438C10.25 5.02859 9.74632 4.5375 9.125 4.5375Z" />
</svg>
